<?xml version="1.0" encoding="utf-8"?>
<!-- Generator: Adobe Illustrator 21.0.0, SVG Export Plug-In . SVG Version: 6.00 Build 0)  -->
<svg version="1.1" id="Layer_1" xmlns="http://www.w3.org/2000/svg" xmlns:xlink="http://www.w3.org/1999/xlink" x="0px" y="0px"
	 viewBox="0 0 318 318" style="enable-background:new 0 0 318 318;" xml:space="preserve">
<style type="text/css">
	.st0{fill:#FFFFFF;}
	.st1{fill:none;}
	.st2{fill:#28A8FF;}
</style>
<circle class="st0" cx="159" cy="159" r="159"/>
<g>
	<path class="st1" d="M65.9,255.6H36.2v-114c1,2.3,2.7,4.1,4.9,5.2c1.8,1,3.6,1.8,5.6,2.5c5,1.6,10.2,2.4,15.4,2.5
		c6.9,0.5,13.8-0.2,20.5-2.1c3.8-1.2,7.4-2.8,10.1-5.9c1.5-1.7,2.4-3.9,2.3-6.2c-0.1-6.3,0-12.6,0-18.9v-1.4c-3,2.1-6.4,3.6-10,4.4
		c-11.8,2.9-24,3.5-36,1.6c-4.7-0.7-9.3-2.1-12.8-5.7v-5.3c0.8,3.9,3.6,5.9,7.1,7c3,1,6.2,1.6,9.3,2.1c9,1.1,18.1,0.8,27-0.9
		c4.4-0.7,8.7-2.1,12.7-4.3c1.5-0.7,2.6-2,3.2-3.6c0.6-1.8,1-3.7,1.3-5.6c0.4-3.2,1.1-6.3,3.7-8.1c2.3-1.6,2.7-3.5,2.5-6
		c-0.2-1.9,0-3.8,0-5.8c0-0.4,0-0.9,0.1-1.3h29.1v4c17.7-2.7,35.8-2.7,53.5,0v-3.9h29.1V96c-0.1,0.6,0.3,1.2,0.8,1.6
		c2.4,1.5,4.1,3.8,4.7,6.5c0.3,1.2,0.5,2.5,0.6,3.8c0.4,4.5,2.3,7.9,6.8,9.5c1.8,0.6,3.5,1.3,5.3,1.8c11.1,2.9,22.7,3.5,34,1.9
		c3.6-0.4,7.1-1.4,10.4-3.2c3.3-1.7,5-5.5,3.9-9.1c-1.8-6.7-4.3-13.1-7.6-19.2c-3.8-7.7-10.9-13.3-19.3-15.3
		c-5.9-1.5-11.8-2.8-17.7-4.2c-12.4-2.8-25.1-4.7-37.8-5.6c-6.9-0.6-13.9-1-20.8-1.4c-6.6-0.3-13.2-0.7-19.8-0.6
		c-15.1,0.2-30.2,1.1-45.3,2.4c-9.9,0.9-20,2.2-30,4c-6.8,1.1-13.6,2.8-20.2,5c-6.4,2.3-12.2,5.7-16,11.4c-2.3,3.6-4.3,7.3-6,11.3
		c-1.8,4.3-3,8.8-4.6,13.3V62.4h245.7v193.2h-30v-26.1h-186L65.9,255.6z M65.9,226.9h186c-0.1-1-0.2-1.8-0.3-2.7
		c-1.5-8.8-3.7-17.5-6.5-26c-7.8-22.5-18.9-43.3-31.9-63.1c-0.4-0.6-0.6-1.3-0.6-2.1c0-14.4,0-28.9,0-43.3v-1.4h-24.5v18.4h-58.3
		V88.4h-24.4v44.7c0,0.7-0.2,1.5-0.6,2.1c-9.3,14.9-17.7,30.3-25.2,46.3c-5.2,11.4-10.1,22.8-11.8,35.4
		C67.3,220.2,66.5,223.5,65.9,226.9L65.9,226.9z M222.9,117.3v21.3c0,1,0.3,2,0.8,2.8c1.6,3.4,4.5,5.3,7.7,6.8
		c5,2.1,10.3,3.3,15.7,3.5c7.7,0.6,15.4-0.1,22.8-2c3.5-0.8,6.7-2.4,9.4-4.8c1.6-1.3,2.5-3.3,2.4-5.4c-0.1-6.6,0-13.2,0-19.8v-2.2
		c-3.2,3-7.2,4.9-11.6,5.4c-4,0.7-8,1.1-12,1.2c-5.8,0-11.5-0.3-17.2-1C234.6,122.5,228.4,121.1,222.9,117.3z"/>
	<path d="M36.2,109.9c1.5-4.4,2.8-9,4.6-13.3c1.7-3.9,3.7-7.7,6-11.3c3.8-5.8,9.6-9.1,16-11.4c6.6-2.2,13.3-3.9,20.2-5
		c10-1.8,20.1-3.1,30.2-3.9c15.1-1.3,30.2-2.2,45.3-2.4c6.6-0.1,13.2,0.3,19.8,0.6c6.9,0.3,13.9,0.8,20.8,1.4
		c12.7,0.9,25.3,2.8,37.8,5.6c5.9,1.4,11.8,2.7,17.7,4.2c8.4,2,15.4,7.6,19.3,15.3c3.3,6.1,5.8,12.5,7.6,19.2
		c1.1,3.6-0.5,7.4-3.9,9.1c-3.2,1.7-6.8,2.8-10.4,3.1c-11.3,1.6-22.9,1-34-1.9c-1.8-0.5-3.6-1.2-5.3-1.8c-4.5-1.6-6.4-5-6.8-9.5
		c-0.1-1.3-0.3-2.5-0.6-3.8c-0.7-2.7-2.4-5.1-4.7-6.5c-0.6-0.3-0.9-0.9-0.8-1.6V86h-29.1v4c-17.7-2.7-35.8-2.7-53.5,0v-4h-29.3
		c0,0.4-0.1,0.9-0.1,1.3c0,1.9-0.1,3.8,0,5.8c0.2,2.5-0.2,4.3-2.5,5.9c-2.6,1.8-3.4,5-3.7,8.1c-0.3,1.9-0.7,3.7-1.3,5.6
		c-0.6,1.6-1.7,2.9-3.2,3.6c-4,2.1-8.3,3.5-12.8,4.2c-8.9,1.7-18,2-27,0.9c-3.2-0.4-6.3-1.1-9.3-2.1c-3.5-1-6.3-3-7.1-7L36.2,109.9z
		"/>
	<path d="M65.9,255.6v-26.1h186v26.1H65.9z"/>
	<path d="M36.2,117.6c3.5,3.6,8,5,12.8,5.7c12,1.8,24.2,1.3,36-1.6c3.6-0.8,7-2.3,10-4.4v1.4c0,6.3-0.1,12.6,0,19
		c0,2.3-0.8,4.5-2.3,6.2c-2.7,3.1-6.3,4.8-10.1,5.9c-6.7,1.9-13.6,2.5-20.5,2c-5.2-0.1-10.4-1-15.4-2.5c-1.9-0.7-3.8-1.5-5.6-2.5
		c-2.2-1.1-4-2.9-5-5.2L36.2,117.6z"/>
	<path d="M222.9,117.3c5.5,3.8,11.7,5.2,18,5.9c5.7,0.7,11.5,1,17.2,1c4-0.1,8-0.5,12-1.2c4.3-0.5,8.4-2.4,11.5-5.4v2.2
		c0,6.6-0.1,13.2,0,19.8c0.1,2.1-0.8,4-2.4,5.4c-2.7,2.3-5.9,3.9-9.4,4.8c-7.4,1.9-15.1,2.6-22.8,2c-5.4-0.2-10.7-1.4-15.7-3.5
		c-3.3-1.5-6.1-3.4-7.7-6.8c-0.4-0.9-0.7-1.9-0.8-2.8c-0.1-6.8,0-13.6,0-20.4C222.8,118,222.8,117.7,222.9,117.3z"/>
	<path class="st0" d="M213.9,186.5c-0.5,1.2,0.1,3-2.1,3c0.4,0,0.8,0,1.2,0.1c0.4,0.2,0.8,0.6,0.8,0.8c-0.1,0.4-0.3,0.8-0.7,1
		c-1.6,0.6-2.5-0.2-2.3-2.2c0-0.1,0.2-0.3,0.2-0.4c-0.2-0.8-0.5-1.8,0.6-2.1C212.4,186.5,213.2,186.5,213.9,186.5z M212.2,186.7
		c-0.3,0.6-0.6,0.9-0.6,1.2c0,0.3,0.5,0.4,0.8,0.7c0.2-0.2,0.6-0.5,0.6-0.7C213,187.7,212.6,187.3,212.2,186.7z M213.3,190.7v-0.4
		c-0.6,0-1.2-0.1-1.7-0.1c-0.1,0-0.1,0.3-0.2,0.5c0.5,0.1,1,0.2,1.5,0.2C213,191,213.2,190.8,213.3,190.7L213.3,190.7z"/>
	<path class="st0" d="M209.7,187.6c-0.6-1.2-1.2-0.2-2,0c0.1-0.9,0.7-1.2,1.3-1.1s1,0.5,1.2,1c0.1,0.9,0.1,1.9,0.1,2.8
		c-1-0.4-2.4,0.8-2.7-0.8C207.2,188,208.8,188.2,209.7,187.6z M209.2,188.3l-1.1,1.1c0.2,0.1,0.4,0.4,0.6,0.4
		C209.4,189.7,209.7,189.3,209.2,188.3L209.2,188.3z"/>
	<path class="st0" d="M216.9,188.5l-1.1,0.1l-0.9,0.1c0,1.3,0.5,1.5,1.9,0.7c-0.2,0.9-0.6,1.1-1.4,1c-1-0.2-1.6-1.2-1.3-2.2
		c0.2-1.1,0.9-1.8,1.7-1.6c0.8,0.2,1.3,0.9,1.2,1.8C216.9,188.4,216.9,188.5,216.9,188.5z M216.3,188l0.2-0.4
		c-0.3-0.2-0.7-0.6-1-0.6c-0.3,0-0.5,0.5-0.9,1H216.3z"/>
	<path class="st0" d="M219.6,187.4c-0.2-0.1-0.4-0.3-0.6-0.3c-0.3,0-0.6,0.1-0.9,0.2c0.2,0.3,0.4,0.5,0.5,0.8c0,0,0.2,0,0.2,0.1
		c0.4,0.3,0.8,0.8,1.1,1.2c0.1,0.2-0.5,0.9-0.8,0.9c-0.6,0-1.2-0.1-1.7-0.4l0.1-0.5c0.3,0.2,0.6,0.3,1,0.4c0.3-0.1,0.6-0.2,0.9-0.4
		c-0.2-0.2-0.3-0.5-0.5-0.7c-0.1-0.1-0.3-0.1-0.4-0.1c-0.4-0.3-0.9-0.6-0.9-1c0-0.4,0.5-0.9,0.8-0.9c0.5,0,1,0.2,1.5,0.4
		L219.6,187.4z"/>
	<path d="M212.2,186.7c0.4,0.5,0.7,0.8,0.7,1.1s-0.4,0.5-0.6,0.7c-0.3-0.2-0.7-0.4-0.8-0.7S211.9,187.3,212.2,186.7z"/>
	<path d="M213.3,190.7c-0.1,0.1-0.3,0.3-0.4,0.3c-0.5,0-1-0.1-1.5-0.2c0.1-0.2,0.1-0.5,0.2-0.5c0.6,0,1.2,0,1.7,0.1V190.7z"/>
	<path d="M209.2,188.3c0.4,1,0.2,1.4-0.5,1.5c-0.2,0-0.4-0.3-0.6-0.4L209.2,188.3z"/>
	<path d="M216.3,188h-1.7c0.4-0.5,0.7-1,0.9-1c0.2,0,0.7,0.4,1,0.6L216.3,188z"/>
	<path class="st2" d="M159.7,148.6c-14.8,0-26.8,11.6-26.8,25.9s12,25.9,26.8,25.9c14.8,0,26.8-11.6,26.8-25.9
		S174.4,148.6,159.7,148.6z M159.9,189.3c-8.1-0.2-14.4-6.9-14.2-15c0.2-8.1,6.9-14.4,15-14.2c7.9,0.2,14.2,6.7,14.2,14.6
		C174.8,182.9,168.1,189.4,159.9,189.3L159.9,189.3L159.9,189.3L159.9,189.3z"/>
	<path d="M251.6,224.3c-1.5-8.8-3.7-17.5-6.5-26c-7.8-22.5-18.9-43.3-31.9-63.1c-0.4-0.6-0.6-1.3-0.6-2.1c0-14.4,0-28.9,0-43.3v-1.4
		h-24.5v18.4h-58.3V88.4h-24.4v44.7c0,0.7-0.2,1.5-0.6,2.1c-9.3,14.9-17.7,30.3-25.2,46.3c-5.2,11.4-10.1,22.8-11.8,35.4
		c-0.5,3.4-1.2,6.7-1.8,10.1h186C251.8,226,251.8,225.1,251.6,224.3z M98.6,174.6c0,0,62-70.8,120.9,0
		C219.5,174.6,166.2,244.6,98.6,174.6L98.6,174.6z"/>
	<path class="st1" d="M98.6,174.6c67.6,70,120.8,0,120.8,0C160.6,103.8,98.6,174.6,98.6,174.6z M159.6,200.4
		c-14.8,0-26.8-11.6-26.8-25.9s12-25.9,26.8-25.9c14.8,0,26.8,11.6,26.8,25.9S174.4,200.4,159.6,200.4L159.6,200.4z"/>
	<ellipse cx="159.9" cy="174.7" rx="15" ry="14.6"/>
</g>
</svg>
