<?xml version="1.0" encoding="utf-8"?>
<!-- Generator: Adobe Illustrator 21.0.0, SVG Export Plug-In . SVG Version: 6.00 Build 0)  -->
<svg version="1.1" id="Layer_1" xmlns="http://www.w3.org/2000/svg" xmlns:xlink="http://www.w3.org/1999/xlink" x="0px" y="0px"
	 viewBox="0 0 2348.5 193.2" style="enable-background:new 0 0 2348.5 193.2;" xml:space="preserve">
<style type="text/css">
	.st0{fill:none;}
	.st1{fill:#FFFFFF;}
</style>
<title>teleface logo 2</title>
<path class="st0" d="M29.8,193.2H0.1v-114c1,2.3,2.7,4.1,4.9,5.2c1.8,1,3.6,1.8,5.6,2.5c5,1.6,10.2,2.4,15.4,2.5
	c6.9,0.5,13.8-0.2,20.5-2.1c3.8-1.2,7.4-2.8,10.1-5.9c1.5-1.7,2.4-3.9,2.3-6.2c-0.1-6.3,0-12.6,0-18.9v-1.4c-3,2.1-6.4,3.6-10,4.4
	c-11.8,2.9-24,3.5-36,1.6c-4.7-0.7-9.3-2.1-12.8-5.7v-5.3c0.8,3.9,3.6,5.9,7.1,7c3,1,6.2,1.6,9.3,2.1c9,1.1,18.1,0.8,27-0.9
	c4.4-0.7,8.7-2.1,12.7-4.3c1.5-0.7,2.6-2,3.2-3.6c0.6-1.8,1-3.7,1.3-5.6c0.4-3.2,1.1-6.3,3.7-8.1c2.3-1.6,2.7-3.5,2.5-6
	c-0.2-1.9,0-3.8,0-5.8c0-0.4,0-0.9,0.1-1.3h29.1v4c17.7-2.7,35.8-2.7,53.5,0v-3.9h29.1v10.1c-0.1,0.6,0.3,1.2,0.8,1.6
	c2.4,1.5,4.1,3.8,4.7,6.5c0.3,1.2,0.5,2.5,0.6,3.8c0.4,4.5,2.3,7.9,6.8,9.5c1.8,0.6,3.5,1.3,5.3,1.8c11.1,2.9,22.7,3.5,34,1.9
	c3.6-0.4,7.1-1.4,10.4-3.2c3.3-1.7,5-5.5,3.9-9.1c-1.8-6.7-4.3-13.1-7.6-19.2c-3.8-7.7-10.9-13.3-19.3-15.3
	c-5.9-1.5-11.8-2.8-17.7-4.2c-12.4-2.8-25.1-4.7-37.8-5.6c-6.9-0.6-13.9-1-20.8-1.4c-6.6-0.3-13.2-0.7-19.8-0.6
	c-15.1,0.2-30.2,1.1-45.3,2.4C67,3.4,56.9,4.7,46.9,6.5c-6.8,1.1-13.6,2.8-20.2,5c-6.4,2.3-12.2,5.7-16,11.4
	c-2.3,3.6-4.3,7.3-6,11.3C2.9,38.5,1.7,43,0.1,47.5V0h245.7v193.2h-30v-26.1h-186L29.8,193.2z M29.8,164.5h186
	c-0.1-1-0.2-1.8-0.3-2.7c-1.5-8.8-3.7-17.5-6.5-26c-7.8-22.5-18.9-43.3-31.9-63.1c-0.4-0.6-0.6-1.3-0.6-2.1c0-14.4,0-28.9,0-43.3
	v-1.4h-24.5v18.4H93.7V26H69.3v44.7c0,0.7-0.2,1.5-0.6,2.1c-9.3,14.9-17.7,30.3-25.2,46.3c-5.2,11.4-10.1,22.8-11.8,35.4
	C31.2,157.8,30.4,161.1,29.8,164.5L29.8,164.5z M186.8,54.9v21.3c0,1,0.3,2,0.8,2.8c1.6,3.4,4.5,5.3,7.7,6.8
	c5,2.1,10.3,3.3,15.7,3.5c7.7,0.6,15.4-0.1,22.8-2c3.5-0.8,6.7-2.4,9.4-4.8c1.6-1.3,2.5-3.3,2.4-5.4c-0.1-6.6,0-13.2,0-19.8v-2.2
	c-3.2,3-7.2,4.9-11.6,5.4c-4,0.7-8,1.1-12,1.2c-5.8,0-11.5-0.3-17.2-1C198.5,60.1,192.3,58.7,186.8,54.9z"/>
<path class="st1" d="M0.1,47.5c1.5-4.4,2.8-9,4.6-13.3c1.7-3.9,3.7-7.7,6-11.3c3.8-5.8,9.6-9.1,16-11.4c6.6-2.2,13.3-3.9,20.2-5
	c10-1.8,20.1-3.1,30.2-3.9c15.1-1.3,30.2-2.2,45.3-2.4c6.6-0.1,13.2,0.3,19.8,0.6c6.9,0.3,13.9,0.8,20.8,1.4
	c12.7,0.9,25.3,2.8,37.8,5.6c5.9,1.4,11.8,2.7,17.7,4.2c8.4,2,15.4,7.6,19.3,15.3c3.3,6.1,5.8,12.5,7.6,19.2
	c1.1,3.6-0.5,7.4-3.9,9.1c-3.2,1.7-6.8,2.8-10.4,3.1c-11.3,1.6-22.9,1-34-1.9c-1.8-0.5-3.6-1.2-5.3-1.8c-4.5-1.6-6.4-5-6.8-9.5
	c-0.1-1.3-0.3-2.5-0.6-3.8c-0.7-2.7-2.4-5.1-4.7-6.5c-0.6-0.3-0.9-0.9-0.8-1.6V23.6h-29.1v4c-17.7-2.7-35.8-2.7-53.5,0v-4H67
	c0,0.4-0.1,0.9-0.1,1.3c0,1.9-0.1,3.8,0,5.8c0.2,2.5-0.2,4.3-2.5,5.9c-2.6,1.8-3.4,5-3.7,8.1c-0.3,1.9-0.7,3.7-1.3,5.6
	c-0.6,1.6-1.7,2.9-3.2,3.6c-4,2.1-8.3,3.5-12.8,4.2c-8.9,1.7-18,2-27,0.9c-3.2-0.4-6.3-1.1-9.3-2.1c-3.5-1-6.3-3-7.1-7L0.1,47.5z"/>
<path class="st1" d="M29.8,193.2v-26.1h186v26.1H29.8z"/>
<path class="st1" d="M0.1,55.2c3.5,3.6,8,5,12.8,5.7c12,1.8,24.2,1.3,36-1.6c3.6-0.8,7-2.3,10-4.4v1.4c0,6.3-0.1,12.6,0,19
	c0,2.3-0.8,4.5-2.3,6.2c-2.7,3.1-6.3,4.8-10.1,5.9c-6.7,1.9-13.6,2.5-20.5,2c-5.2-0.1-10.4-1-15.4-2.5c-1.9-0.7-3.8-1.5-5.6-2.5
	C2.8,83.3,1,81.5,0,79.2L0.1,55.2z"/>
<path class="st1" d="M186.8,54.9c5.5,3.8,11.7,5.2,18,5.9c5.7,0.7,11.5,1,17.2,1c4-0.1,8-0.5,12-1.2c4.3-0.5,8.4-2.4,11.5-5.4v2.2
	c0,6.6-0.1,13.2,0,19.8c0.1,2.1-0.8,4-2.4,5.4c-2.7,2.3-5.9,3.9-9.4,4.8c-7.4,1.9-15.1,2.6-22.8,2c-5.4-0.2-10.7-1.4-15.7-3.5
	c-3.3-1.5-6.1-3.4-7.7-6.8c-0.4-0.9-0.7-1.9-0.8-2.8c-0.1-6.8,0-13.6,0-20.4C186.7,55.6,186.7,55.3,186.8,54.9z"/>
<path class="st1" d="M177.8,124.1c-0.5,1.2,0.1,3-2.1,3c0.4,0,0.8,0,1.2,0.1c0.4,0.2,0.8,0.6,0.8,0.8c-0.1,0.4-0.3,0.8-0.7,1
	c-1.6,0.6-2.5-0.2-2.3-2.2c0-0.1,0.2-0.3,0.2-0.4c-0.2-0.8-0.5-1.8,0.6-2.1C176.3,124.1,177.1,124.1,177.8,124.1z M176.1,124.3
	c-0.3,0.6-0.6,0.9-0.6,1.2s0.5,0.4,0.8,0.7c0.2-0.2,0.6-0.5,0.6-0.7S176.5,124.9,176.1,124.3z M177.2,128.3v-0.4
	c-0.6,0-1.2-0.1-1.7-0.1c-0.1,0-0.1,0.3-0.2,0.5c0.5,0.1,1,0.2,1.5,0.2C176.9,128.6,177.1,128.4,177.2,128.3L177.2,128.3z"/>
<path class="st1" d="M173.6,125.2c-0.6-1.2-1.2-0.2-2,0c0.1-0.9,0.7-1.2,1.3-1.1c0.6,0.1,1,0.5,1.2,1c0.1,0.9,0.1,1.9,0.1,2.8
	c-1-0.4-2.4,0.8-2.7-0.8C171.1,125.6,172.7,125.8,173.6,125.2z M173.1,125.9L172,127c0.2,0.1,0.4,0.4,0.6,0.4
	C173.3,127.3,173.6,126.9,173.1,125.9L173.1,125.9z"/>
<path class="st1" d="M180.8,126.1l-1.1,0.1l-0.9,0.1c0,1.3,0.5,1.5,1.9,0.7c-0.2,0.9-0.6,1.1-1.4,1c-1-0.2-1.6-1.2-1.3-2.2
	c0.2-1.1,0.9-1.8,1.7-1.6c0.8,0.2,1.3,0.9,1.2,1.8C180.8,126,180.8,126.1,180.8,126.1z M180.2,125.6l0.2-0.4c-0.3-0.2-0.7-0.6-1-0.6
	s-0.5,0.5-0.9,1L180.2,125.6z"/>
<path class="st1" d="M183.5,125c-0.2-0.1-0.4-0.3-0.6-0.3c-0.3,0-0.6,0.1-0.9,0.2c0.2,0.3,0.4,0.5,0.5,0.8c0,0,0.2,0,0.2,0.1
	c0.4,0.3,0.8,0.8,1.1,1.2c0.1,0.2-0.5,0.9-0.8,0.9c-0.6,0-1.2-0.1-1.7-0.4l0.1-0.5c0.3,0.2,0.6,0.3,1,0.4c0.3-0.1,0.6-0.2,0.9-0.4
	c-0.2-0.2-0.3-0.5-0.5-0.7c-0.1-0.1-0.3-0.1-0.4-0.1c-0.4-0.3-0.9-0.6-0.9-1s0.5-0.9,0.8-0.9c0.5,0,1,0.2,1.5,0.4L183.5,125z"/>
<path d="M176.1,124.3c0.4,0.5,0.7,0.8,0.7,1.1s-0.4,0.5-0.6,0.7c-0.3-0.2-0.7-0.4-0.8-0.7S175.8,124.9,176.1,124.3z"/>
<path d="M177.2,128.3c-0.1,0.1-0.3,0.3-0.4,0.3c-0.5,0-1-0.1-1.5-0.2c0.1-0.2,0.1-0.5,0.2-0.5c0.6,0,1.2,0,1.7,0.1L177.2,128.3z"/>
<path d="M173.1,125.9c0.4,1,0.2,1.4-0.5,1.5c-0.2,0-0.4-0.3-0.6-0.4L173.1,125.9z"/>
<path d="M180.2,125.6h-1.7c0.4-0.5,0.7-1,0.9-1s0.7,0.4,1,0.6L180.2,125.6z"/>
<path class="st1" d="M123.6,86.2c-14.8,0-26.8,11.6-26.8,25.9s12,25.9,26.8,25.9s26.8-11.6,26.8-25.9S138.3,86.2,123.6,86.2z
	 M123.8,126.9c-8.1-0.2-14.4-6.9-14.2-15s6.9-14.4,15-14.2c7.9,0.2,14.2,6.7,14.2,14.6C138.7,120.5,132,127,123.8,126.9
	C123.8,126.9,123.8,126.9,123.8,126.9L123.8,126.9L123.8,126.9z"/>
<path class="st1" d="M215.5,161.9c-1.5-8.8-3.7-17.5-6.5-26c-7.8-22.5-18.9-43.3-31.9-63.1c-0.4-0.6-0.6-1.3-0.6-2.1
	c0-14.4,0-28.9,0-43.3v-1.4h-24.5v18.4H93.7V26H69.3v44.7c0,0.7-0.2,1.5-0.6,2.1c-9.3,14.9-17.7,30.3-25.2,46.3
	c-5.2,11.4-10.1,22.8-11.8,35.4c-0.5,3.4-1.2,6.7-1.8,10.1h186C215.7,163.6,215.7,162.7,215.5,161.9z M62.5,112.2
	c0,0,62-70.8,120.9,0C183.4,112.2,130.1,182.2,62.5,112.2L62.5,112.2z"/>
<path class="st0" d="M62.5,112.2c67.6,70,120.8,0,120.8,0C124.5,41.4,62.5,112.2,62.5,112.2z M123.5,138
	c-14.8,0-26.8-11.6-26.8-25.9s12-25.9,26.8-25.9s26.8,11.6,26.8,25.9S138.3,138,123.5,138L123.5,138z"/>
<ellipse class="st0" cx="123.8" cy="112.3" rx="15" ry="14.6"/>
<g>
	<g>
		<path class="st1" d="M387.2,44.5c-0.6,1.3-1.5,2.4-2.6,3.2c-1.1,0.6-2.3,1-3.6,0.9c-1.7-0.1-3.3-0.7-4.7-1.6
			c-1.7-1.1-3.8-2.3-6.1-3.6c-2.6-1.4-5.4-2.6-8.2-3.6c-3.6-1.1-7.4-1.7-11.1-1.6c-3.4-0.1-6.8,0.4-10.1,1.4
			c-2.7,0.8-5.1,2.1-7.3,3.9c-1.9,1.6-3.4,3.7-4.4,6c-1,2.4-1.5,5-1.5,7.6c-0.1,3.2,1,6.3,3,8.8c2.2,2.5,4.8,4.5,7.8,6
			c3.6,1.8,7.3,3.3,11.1,4.4c4.1,1.3,8.4,2.7,12.7,4.2c4.3,1.5,8.6,3.2,12.7,5.2c4,1.9,7.7,4.4,11,7.5c3.3,3.1,6,6.8,7.8,11
			c2.1,5,3.1,10.4,3,15.9c0,6.5-1.1,12.9-3.5,19c-2.2,5.8-5.7,11.1-10.2,15.5c-4.7,4.5-10.2,8.1-16.3,10.4
			c-7.1,2.6-14.5,3.9-22.1,3.8c-4.7,0-9.5-0.5-14.1-1.4c-4.6-0.9-9-2.3-13.3-4c-4.2-1.7-8.2-3.8-11.9-6.2c-3.6-2.3-6.9-5-9.9-8.1
			l8.1-13.4c0.8-1,1.7-1.8,2.8-2.4c1.1-0.7,2.3-1,3.6-1c2,0.1,4,0.9,5.6,2.1c2,1.4,4.4,3,7.1,4.7c3,1.9,6.3,3.5,9.6,4.7
			c4.3,1.5,8.8,2.2,13.3,2.1c7.9,0,14.1-1.9,18.4-5.6s6.5-9.2,6.5-16.2c0.1-3.5-0.9-6.9-3-9.6c-2.1-2.6-4.8-4.8-7.8-6.3
			c-3.5-1.8-7.3-3.2-11.1-4.3c-4.1-1.2-8.4-2.4-12.6-3.8c-4.3-1.4-8.5-3.1-12.6-5c-4.1-1.9-7.8-4.4-11.1-7.6
			c-3.4-3.3-6-7.3-7.8-11.7c-2-4.7-3-10.4-3-17.3c0.1-11.2,4.7-21.9,12.9-29.7c4.5-4.2,9.7-7.4,15.4-9.6c6.6-2.5,13.7-3.8,20.8-3.7
			c8.3-0.1,16.6,1.3,24.4,4.1c7.1,2.5,13.6,6.5,19.1,11.6L387.2,44.5z"/>
		<path class="st1" d="M523.7,17.3v22.9h-45.1v126.9h-27.9V40.2h-45.3V17.3H523.7z"/>
		<path class="st1" d="M635.8,17.3v22.2h-66.4V81h52.3v21.4h-52.3v42.4h66.4v22.3h-94.5V17.3H635.8z"/>
	</g>
	<g>
		<path class="st1" d="M754.4,17.3v22.2H688v44.3h56v22.3h-56v61H660V17.3H754.4z"/>
	</g>
	<g>
		<path class="st1" d="M892.7,167.1h-21.5c-2.1,0.1-4.3-0.5-6-1.8c-1.5-1.2-2.7-2.7-3.4-4.5l-11.1-30.6h-62l-11.2,30.6
			c-0.7,1.7-1.8,3.2-3.3,4.4c-1.7,1.4-3.8,2.1-6,2h-21.7l58.8-149.8h28.5L892.7,167.1z M795.7,110.5h47.8l-18.2-49.8
			c-0.8-2.2-1.7-4.8-2.7-7.8c-1-3-2-6.3-3-9.8c-1,3.5-1.9,6.8-2.8,9.8c-0.9,3-1.8,5.7-2.7,8L795.7,110.5z"/>
		<path class="st1" d="M925.9,17.5c0.8,0.1,1.5,0.3,2.2,0.6c0.7,0.4,1.3,0.8,1.9,1.4c0.7,0.7,1.4,1.5,2.1,2.3l78.6,100.2
			c-0.3-2.4-0.5-4.8-0.6-7.1c-0.1-2.3-0.2-4.5-0.2-6.5v-91h24.5v149.7h-14.4c-1.9,0.1-3.8-0.3-5.5-1c-1.7-0.9-3.1-2.2-4.3-3.7
			l-78.3-99.8c0.2,2.2,0.4,4.4,0.5,6.6s0.2,4.2,0.2,6v92h-24.6V17.3h14.6C923.8,17.3,924.8,17.3,925.9,17.5z"/>
		<path class="st1" d="M1165,144.6c4.9,0.1,9.9-0.8,14.4-2.7c4.1-1.7,7.8-4.3,10.8-7.6c3-3.4,5.3-7.4,6.7-11.8
			c1.6-5,2.4-10.3,2.3-15.5V17.3h27.9V107c0.1,8.4-1.4,16.8-4.3,24.7c-2.7,7.3-6.9,14-12.4,19.6c-5.5,5.6-12.2,10-19.5,12.9
			c-16.7,6.1-35.1,6.1-51.8,0c-14.8-5.7-26.4-17.5-31.8-32.4c-2.9-7.9-4.4-16.3-4.3-24.7V17.3h27.9v89.6c-0.1,5.3,0.7,10.5,2.3,15.5
			c1.4,4.4,3.7,8.4,6.7,11.9c3,3.3,6.6,5.9,10.7,7.6C1155.2,143.8,1160.1,144.7,1165,144.6z"/>
		<path class="st1" d="M1388.6,92.2c0.1,10.3-1.7,20.6-5.5,30.3c-6.9,18.1-21.3,32.3-39.4,39.2c-9.9,3.8-20.4,5.6-31,5.5h-57.2V17.3
			h57.2c10.6-0.1,21.1,1.7,31,5.5c8.9,3.5,17.1,8.7,23.9,15.4c6.7,6.7,12,14.8,15.4,23.7C1386.8,71.6,1388.7,81.8,1388.6,92.2z
			 M1360.1,92.2c0.1-7.5-1-15-3.3-22.1c-2-6.1-5.2-11.8-9.4-16.6c-4.1-4.5-9.2-8.1-14.9-10.4c-6.3-2.5-13-3.7-19.7-3.6h-29.1v105.4
			h29.1c6.8,0.1,13.5-1.1,19.7-3.6c5.7-2.3,10.8-5.9,14.9-10.4c4.2-4.8,7.5-10.5,9.4-16.6C1359.1,107.2,1360.2,99.7,1360.1,92.2
			L1360.1,92.2z"/>
		<path class="st1" d="M1543.4,92.2c0.1,10.3-1.7,20.6-5.5,30.3c-6.9,18.1-21.3,32.3-39.4,39.2c-9.9,3.8-20.4,5.6-31,5.5h-57.2V17.3
			h57.2c10.6-0.1,21.1,1.7,31,5.5c8.9,3.5,17.1,8.7,23.9,15.4c6.7,6.7,12,14.8,15.4,23.7C1541.7,71.6,1543.5,81.8,1543.4,92.2z
			 M1514.9,92.2c0.1-7.5-1-15-3.3-22.1c-2-6.1-5.2-11.8-9.4-16.6c-4.1-4.5-9.2-8.1-14.9-10.4c-6.3-2.5-13-3.7-19.7-3.6h-29.1v105.4
			h29.1c6.8,0.1,13.5-1.1,19.7-3.6c5.7-2.3,10.8-5.9,14.9-10.4c4.2-4.8,7.5-10.5,9.4-16.6C1513.9,107.2,1515.1,99.7,1514.9,92.2
			L1514.9,92.2z"/>
		<path class="st1" d="M1659.7,17.3v22.2h-66.4V81h52.3v21.4h-52.3v42.4h66.4v22.3h-94.5V17.3H1659.7z"/>
		<path class="st1" d="M1701.6,17.5c0.8,0.1,1.5,0.3,2.2,0.6c0.7,0.3,1.4,0.8,1.9,1.3c0.7,0.7,1.4,1.5,2.1,2.3l78.6,100.2
			c-0.3-2.4-0.5-4.8-0.6-7.1c-0.1-2.3-0.2-4.5-0.2-6.5v-91h24.6v149.7h-14.4c-1.9,0.1-3.8-0.3-5.5-1c-1.7-0.9-3.1-2.2-4.3-3.7
			l-78.3-99.8c0.2,2.2,0.4,4.4,0.5,6.6c0.1,2.2,0.2,4.2,0.2,6v92h-24.6V17.3h14.6C1699.5,17.3,1700.5,17.3,1701.6,17.5z"/>
		<path class="st1" d="M1840.5,167.1V17.3h51.7c9.8,0,18.2,0.9,25.1,2.8c6.2,1.5,12,4.2,17.1,8c4.3,3.2,7.7,7.6,9.8,12.5
			c2.1,5.3,3.2,10.9,3.1,16.6c0,3.4-0.5,6.8-1.6,10.1c-1.1,3.3-2.7,6.3-4.8,9c-2.3,3-5.1,5.5-8.3,7.6c-3.7,2.5-7.8,4.4-12,5.8
			c20.6,4.6,30.9,15.7,30.9,33.3c0.1,6.1-1.2,12.1-3.6,17.6c-2.4,5.4-6,10.2-10.5,14c-5.1,4.1-10.9,7.2-17.1,9.2
			c-7.5,2.3-15.3,3.4-23.2,3.3H1840.5z M1868.3,82.1h22.3c9.5,0,16.6-1.7,21.5-5.2c4.9-3.5,7.4-8.9,7.3-16.5
			c0-7.8-2.2-13.4-6.6-16.7c-4.4-3.3-11.3-5-20.7-5h-23.8L1868.3,82.1z M1868.3,101.4v43.9h28.3c4.4,0.1,8.8-0.5,13-1.9
			c3.1-1,6-2.7,8.4-5c2.1-2,3.6-4.5,4.6-7.3c0.9-2.8,1.4-5.8,1.4-8.8c0-3-0.5-6-1.6-8.8c-1-2.6-2.7-4.9-4.9-6.6
			c-2.5-2-5.4-3.4-8.5-4.2c-4.1-1-8.3-1.5-12.5-1.4L1868.3,101.4z"/>
		<path class="st1" d="M2069.9,17.3v22.2h-66.4V81h52.3v21.4h-52.3v42.4h66.4v22.3h-94.5V17.3H2069.9z"/>
	</g>
	<g>
		<path class="st1" d="M2122.8,108.6v58.5H2095V17.3h45.7c10.2,0,19,1.1,26.3,3.2c6.5,1.7,12.6,4.7,17.9,8.9
			c4.5,3.6,8,8.3,10.3,13.6c4,10.2,4.3,21.4,1,31.8c-1.4,4.4-3.6,8.5-6.4,12.2c-2.9,3.8-6.4,7-10.4,9.6c-4.3,2.9-9,5.1-14,6.6
			c3.7,2.1,6.8,5.1,9.1,8.6l37.5,55.3h-25.1c-2.1,0.1-4.3-0.4-6.2-1.5c-1.7-1-3.2-2.4-4.3-4.1l-31.5-48c-1-1.6-2.3-2.9-3.9-3.8
			c-2-0.9-4.1-1.3-6.3-1.1L2122.8,108.6z M2122.8,88.6h17.4c4.7,0.1,9.3-0.6,13.7-2c3.6-1.1,6.8-3,9.6-5.4c2.5-2.3,4.4-5.1,5.6-8.2
			c1.3-3.3,1.9-6.9,1.9-10.5c0-7.6-2.5-13.4-7.5-17.5s-12.7-6.1-22.9-6.1h-17.8L2122.8,88.6z"/>
	</g>
	<g>
		<path class="st1" d="M2293.5,146.6c10.3,0.2,20.5-2,29.7-6.4v-27.3h-18.8c-1.6,0.1-3.1-0.5-4.3-1.5c-1-1-1.6-2.3-1.6-3.7V92h49.8
			v60.6c-3.7,2.7-7.7,5.1-11.9,7.2c-4.2,2.1-8.6,3.7-13.1,5c-4.9,1.4-9.9,2.4-15,3c-5.7,0.7-11.4,1-17.2,1
			c-10.3,0.1-20.6-1.8-30.1-5.7c-18.2-7.3-32.5-21.8-39.5-40.1c-3.8-9.8-5.8-20.2-5.6-30.8c-0.1-10.6,1.7-21.1,5.5-31
			c6.9-18.5,21.6-33.1,40.1-40c10.3-3.9,21.3-5.8,32.4-5.7c12.2,0,22.8,1.8,31.8,5.4c8.4,3.3,16.1,8.1,22.7,14.1l-8.1,12.6
			c-1.2,2.3-3.7,3.8-6.3,3.8c-1.8-0.1-3.6-0.6-5.1-1.7c-2.2-1.3-4.5-2.6-6.8-3.9c-2.4-1.4-5-2.5-7.7-3.4c-3.1-1-6.2-1.8-9.4-2.4
			c-4-0.7-8-1-12.1-0.9c-6.8-0.1-13.6,1.2-20,3.7c-5.8,2.4-11,6-15.3,10.7c-4.3,4.8-7.7,10.5-9.7,16.7c-2.4,7-3.5,14.4-3.4,21.8
			c-0.1,7.8,1.1,15.6,3.6,23c2.2,6.3,5.6,12.1,10.1,17c4.3,4.6,9.7,8.2,15.5,10.6C2280.1,145.3,2286.8,146.6,2293.5,146.6z"/>
	</g>
</g>
</svg>
