<?xml version="1.0" encoding="utf-8"?>
<!-- Generator: Adobe Illustrator 21.0.0, SVG Export Plug-In . SVG Version: 6.00 Build 0)  -->
<svg version="1.1" id="Layer_1" xmlns="http://www.w3.org/2000/svg" xmlns:xlink="http://www.w3.org/1999/xlink" x="0px" y="0px"
	 viewBox="0 0 2053 153.3" style="enable-background:new 0 0 2053 153.3;" xml:space="preserve">
<style type="text/css">
	.st0{fill:#FFFFFF;}
</style>
<title>teleface logo 2</title>
<g>
	<g>
		<path class="st0" d="M91.8,29c-0.6,1.3-1.5,2.4-2.6,3.2c-1.1,0.6-2.3,1-3.6,0.9c-1.7-0.1-3.3-0.7-4.7-1.6
			c-1.7-1.1-3.8-2.3-6.1-3.6c-2.6-1.4-5.4-2.6-8.2-3.6c-3.6-1.1-7.4-1.7-11.1-1.6c-3.4-0.1-6.8,0.4-10.1,1.4
			c-2.7,0.8-5.1,2.1-7.3,3.9c-1.9,1.6-3.4,3.7-4.4,6c-1,2.4-1.5,5-1.5,7.6c-0.1,3.2,1,6.3,3,8.8c2.2,2.5,4.8,4.5,7.8,6
			c3.6,1.8,7.3,3.3,11.1,4.4c4.1,1.3,8.4,2.7,12.7,4.2c4.3,1.5,8.6,3.2,12.7,5.2c4,1.9,7.7,4.4,11,7.5s6,6.8,7.8,11
			c2.1,5,3.1,10.4,3,15.9c0,6.5-1.1,12.9-3.5,19c-2.2,5.8-5.7,11.1-10.2,15.5c-4.7,4.5-10.2,8.1-16.3,10.4
			c-7.1,2.6-14.5,3.9-22.1,3.8c-4.7,0-9.5-0.5-14.1-1.4s-9-2.3-13.3-4c-4.2-1.7-8.2-3.8-11.9-6.2c-3.6-2.3-6.9-5-9.9-8.1l8.1-13.4
			c0.8-1,1.7-1.8,2.8-2.4c1.1-0.7,2.3-1,3.6-1c2,0.1,4,0.9,5.6,2.1c2,1.4,4.4,3,7.1,4.7c3,1.9,6.3,3.5,9.6,4.7
			c4.3,1.5,8.8,2.2,13.3,2.1c7.9,0,14.1-1.9,18.4-5.6c4.3-3.7,6.5-9.2,6.5-16.2c0.1-3.5-0.9-6.9-3-9.6c-2.1-2.6-4.8-4.8-7.8-6.3
			c-3.5-1.8-7.3-3.2-11.1-4.3c-4.1-1.2-8.4-2.4-12.6-3.8c-4.3-1.4-8.5-3.1-12.6-5s-7.8-4.4-11.1-7.6c-3.4-3.3-6-7.3-7.8-11.7
			C7,55.6,6,49.9,6,43c0.1-11.2,4.7-21.9,12.9-29.7c4.5-4.2,9.7-7.4,15.4-9.6C40.9,1.2,48-0.1,55.1,0c8.3-0.1,16.6,1.3,24.4,4.1
			c7.1,2.5,13.6,6.5,19.1,11.6L91.8,29z"/>
		<path class="st0" d="M228.3,1.8v22.9h-45.1v126.9h-27.9V24.7H110V1.8H228.3z"/>
		<path class="st0" d="M340.4,1.8V24H274v41.5h52.3v21.4H274v42.4h66.4v22.3h-94.5V1.8H340.4z"/>
	</g>
	<g>
		<path class="st0" d="M459,1.8V24h-66.4v44.3h56v22.3h-56v61h-28V1.8H459z"/>
	</g>
	<g>
		<path class="st0" d="M597.3,151.6h-21.5c-2.1,0.1-4.3-0.5-6-1.8c-1.5-1.2-2.7-2.7-3.4-4.5l-11.1-30.6h-62l-11.2,30.6
			c-0.7,1.7-1.8,3.2-3.3,4.4c-1.7,1.4-3.8,2.1-6,2h-21.7L509.9,1.9h28.5L597.3,151.6z M500.3,95h47.8l-18.2-49.8
			c-0.8-2.2-1.7-4.8-2.7-7.8s-2-6.3-3-9.8c-1,3.5-1.9,6.8-2.8,9.8c-0.9,3-1.8,5.7-2.7,8L500.3,95z"/>
		<path class="st0" d="M630.5,2c0.8,0.1,1.5,0.3,2.2,0.6c0.7,0.4,1.3,0.8,1.9,1.4c0.7,0.7,1.4,1.5,2.1,2.3l78.6,100.2
			c-0.3-2.4-0.5-4.8-0.6-7.1c-0.1-2.3-0.2-4.5-0.2-6.5v-91H739v149.7h-14.4c-1.9,0.1-3.8-0.3-5.5-1c-1.7-0.9-3.1-2.2-4.3-3.7
			l-78.3-99.8c0.2,2.2,0.4,4.4,0.5,6.6s0.2,4.2,0.2,6v92h-24.6V1.8h14.6C628.4,1.8,629.4,1.8,630.5,2z"/>
		<path class="st0" d="M869.6,129.1c4.9,0.1,9.9-0.8,14.4-2.7c4.1-1.7,7.8-4.3,10.8-7.6c3-3.4,5.3-7.4,6.7-11.8
			c1.6-5,2.4-10.3,2.3-15.5V1.8h27.9v89.7c0.1,8.4-1.4,16.8-4.3,24.7c-2.7,7.3-6.9,14-12.4,19.6s-12.2,10-19.5,12.9
			c-16.7,6.1-35.1,6.1-51.8,0c-14.8-5.7-26.4-17.5-31.8-32.4c-2.9-7.9-4.4-16.3-4.3-24.7V1.8h27.9v89.6c-0.1,5.3,0.7,10.5,2.3,15.5
			c1.4,4.4,3.7,8.4,6.7,11.9c3,3.3,6.6,5.9,10.7,7.6C859.8,128.3,864.7,129.2,869.6,129.1z"/>
		<path class="st0" d="M1093.2,76.7c0.1,10.3-1.7,20.6-5.5,30.3c-6.9,18.1-21.3,32.3-39.4,39.2c-9.9,3.8-20.4,5.6-31,5.5h-57.2V1.8
			h57.2c10.6-0.1,21.1,1.7,31,5.5c8.9,3.5,17.1,8.7,23.9,15.4c6.7,6.7,12,14.8,15.4,23.7C1091.4,56.1,1093.3,66.3,1093.2,76.7z
			 M1064.7,76.7c0.1-7.5-1-15-3.3-22.1c-2-6.1-5.2-11.8-9.4-16.6c-4.1-4.5-9.2-8.1-14.9-10.4c-6.3-2.5-13-3.7-19.7-3.6h-29.1v105.4
			h29.1c6.8,0.1,13.5-1.1,19.7-3.6c5.7-2.3,10.8-5.9,14.9-10.4c4.2-4.8,7.5-10.5,9.4-16.6C1063.7,91.7,1064.8,84.2,1064.7,76.7
			L1064.7,76.7z"/>
		<path class="st0" d="M1248,76.7c0.1,10.3-1.7,20.6-5.5,30.3c-6.9,18.1-21.3,32.3-39.4,39.2c-9.9,3.8-20.4,5.6-31,5.5h-57.2V1.8
			h57.2c10.6-0.1,21.1,1.7,31,5.5c8.9,3.5,17.1,8.7,23.9,15.4c6.7,6.7,12,14.8,15.4,23.7C1246.3,56.1,1248.1,66.3,1248,76.7z
			 M1219.5,76.7c0.1-7.5-1-15-3.3-22.1c-2-6.1-5.2-11.8-9.4-16.6c-4.1-4.5-9.2-8.1-14.9-10.4c-6.3-2.5-13-3.7-19.7-3.6h-29.1v105.4
			h29.1c6.8,0.1,13.5-1.1,19.7-3.6c5.7-2.3,10.8-5.9,14.9-10.4c4.2-4.8,7.5-10.5,9.4-16.6C1218.5,91.7,1219.7,84.2,1219.5,76.7
			L1219.5,76.7z"/>
		<path class="st0" d="M1364.3,1.8V24h-66.4v41.5h52.3v21.4h-52.3v42.4h66.4v22.3h-94.5V1.8H1364.3z"/>
		<path class="st0" d="M1406.2,2c0.8,0.1,1.5,0.3,2.2,0.6c0.7,0.3,1.4,0.8,1.9,1.3c0.7,0.7,1.4,1.5,2.1,2.3l78.6,100.2
			c-0.3-2.4-0.5-4.8-0.6-7.1c-0.1-2.3-0.2-4.5-0.2-6.5v-91h24.6v149.7h-14.4c-1.9,0.1-3.8-0.3-5.5-1c-1.7-0.9-3.1-2.2-4.3-3.7
			L1412.3,47c0.2,2.2,0.4,4.4,0.5,6.6s0.2,4.2,0.2,6v92h-24.6V1.8h14.6C1404.1,1.8,1405.1,1.8,1406.2,2z"/>
		<path class="st0" d="M1545.1,151.6V1.8h51.7c9.8,0,18.2,0.9,25.1,2.8c6.2,1.5,12,4.2,17.1,8c4.3,3.2,7.7,7.6,9.8,12.5
			c2.1,5.3,3.2,10.9,3.1,16.6c0,3.4-0.5,6.8-1.6,10.1c-1.1,3.3-2.7,6.3-4.8,9c-2.3,3-5.1,5.5-8.3,7.6c-3.7,2.5-7.8,4.4-12,5.8
			c20.6,4.6,30.9,15.7,30.9,33.3c0.1,6.1-1.2,12.1-3.6,17.6c-2.4,5.4-6,10.2-10.5,14c-5.1,4.1-10.9,7.2-17.1,9.2
			c-7.5,2.3-15.3,3.4-23.2,3.3H1545.1z M1572.9,66.6h22.3c9.5,0,16.6-1.7,21.5-5.2s7.4-8.9,7.3-16.5c0-7.8-2.2-13.4-6.6-16.7
			s-11.3-5-20.7-5h-23.8L1572.9,66.6z M1572.9,85.9v43.9h28.3c4.4,0.1,8.8-0.5,13-1.9c3.1-1,6-2.7,8.4-5c2.1-2,3.6-4.5,4.6-7.3
			c0.9-2.8,1.4-5.8,1.4-8.8s-0.5-6-1.6-8.8c-1-2.6-2.7-4.9-4.9-6.6c-2.5-2-5.4-3.4-8.5-4.2c-4.1-1-8.3-1.5-12.5-1.4L1572.9,85.9z"/>
		<path class="st0" d="M1774.5,1.8V24h-66.4v41.5h52.3v21.4h-52.3v42.4h66.4v22.3H1680V1.8H1774.5z"/>
	</g>
	<g>
		<path class="st0" d="M1827.4,93.1v58.5h-27.8V1.8h45.7c10.2,0,19,1.1,26.3,3.2c6.5,1.7,12.6,4.7,17.9,8.9c4.5,3.6,8,8.3,10.3,13.6
			c4,10.2,4.3,21.4,1,31.8c-1.4,4.4-3.6,8.5-6.4,12.2c-2.9,3.8-6.4,7-10.4,9.6c-4.3,2.9-9,5.1-14,6.6c3.7,2.1,6.8,5.1,9.1,8.6
			l37.5,55.3h-25.1c-2.1,0.1-4.3-0.4-6.2-1.5c-1.7-1-3.2-2.4-4.3-4.1l-31.5-48c-1-1.6-2.3-2.9-3.9-3.8c-2-0.9-4.1-1.3-6.3-1.1
			L1827.4,93.1z M1827.4,73.1h17.4c4.7,0.1,9.3-0.6,13.7-2c3.6-1.1,6.8-3,9.6-5.4c2.5-2.3,4.4-5.1,5.6-8.2c1.3-3.3,1.9-6.9,1.9-10.5
			c0-7.6-2.5-13.4-7.5-17.5s-12.7-6.1-22.9-6.1h-17.8V73.1z"/>
	</g>
	<g>
		<path class="st0" d="M1998.1,131.1c10.3,0.2,20.5-2,29.7-6.4V97.4H2009c-1.6,0.1-3.1-0.5-4.3-1.5c-1-1-1.6-2.3-1.6-3.7V76.5h49.8
			v60.6c-3.7,2.7-7.7,5.1-11.9,7.2c-4.2,2.1-8.6,3.7-13.1,5c-4.9,1.4-9.9,2.4-15,3c-5.7,0.7-11.4,1-17.2,1
			c-10.3,0.1-20.6-1.8-30.1-5.7c-18.2-7.3-32.5-21.8-39.5-40.1c-3.8-9.8-5.8-20.2-5.6-30.8c-0.1-10.6,1.7-21.1,5.5-31
			c6.9-18.5,21.6-33.1,40.1-40c10.3-3.9,21.3-5.8,32.4-5.7c12.2,0,22.8,1.8,31.8,5.4c8.4,3.3,16.1,8.1,22.7,14.1l-8.1,12.6
			c-1.2,2.3-3.7,3.8-6.3,3.8c-1.8-0.1-3.6-0.6-5.1-1.7c-2.2-1.3-4.5-2.6-6.8-3.9c-2.4-1.4-5-2.5-7.7-3.4c-3.1-1-6.2-1.8-9.4-2.4
			c-4-0.7-8-1-12.1-0.9c-6.8-0.1-13.6,1.2-20,3.7c-5.8,2.4-11,6-15.3,10.7c-4.3,4.8-7.7,10.5-9.7,16.7c-2.4,7-3.5,14.4-3.4,21.8
			c-0.1,7.8,1.1,15.6,3.6,23c2.2,6.3,5.6,12.1,10.1,17c4.3,4.6,9.7,8.2,15.5,10.6C1984.7,129.8,1991.4,131.1,1998.1,131.1z"/>
	</g>
</g>
</svg>
